<mxfile host="app.diagrams.net" modified="2023-10-08T11:01:32.254Z" agent="Mozilla/5.0 (Windows NT 10.0; Win64; x64) AppleWebKit/537.36 (KHTML, like Gecko) Chrome/117.0.0.0 Safari/537.36" version="22.0.4" etag="K6wfUu6SSzh-2JHVg8LT" type="github">
  <diagram name="第 1 页" id="aHdpZ4Jt80SahsmwVDeQ">
    <mxGraphModel>
      <root>
        <mxCell id="0" />
        <mxCell id="1" parent="0" />
      </root>
    </mxGraphModel>
  </diagram>
</mxfile>
